<svg width="149" height="48" viewBox="0 0 149 48" fill="none" xmlns="http://www.w3.org/2000/svg">
<path d="M0 25.151L15.5546 0L11.4898 18.5237L29.5374 17.8719L6.88304 47.2599L14.4164 25.151H0Z" fill="#F3EA0F"/>
<path d="M20.5507 1.42683C20.4498 1.49964 20.3154 1.77008 20.2482 2.03011C19.9345 3.22626 19.6321 4.55762 19.4865 5.41052C19.3968 5.92019 19.2176 6.72109 19.0944 7.17874C18.9599 7.6364 18.7919 8.33328 18.7135 8.73893C18.6351 9.13418 18.355 10.3927 18.0974 11.5369C17.8173 12.8058 17.6717 13.6379 17.7389 13.7003C17.7949 13.7523 20.4162 13.794 24.1578 13.7836H30.4759L31.0808 13.5027C31.7977 13.1803 32.4699 12.6394 32.8507 12.0881C33.1196 11.6929 33.4109 10.6528 33.9374 8.27088C34.5311 5.53534 34.7887 4.14157 34.7887 3.68391C34.7887 2.63338 34.195 1.79088 33.254 1.48924C32.6267 1.30202 20.8083 1.23961 20.5507 1.42683ZM28.0786 3.96475C28.4034 4.11036 28.7395 4.68244 28.7395 5.06728C28.7395 5.50414 27.7425 9.93508 27.5185 10.4759C27.3056 11.0064 26.9135 11.1312 25.2444 11.1624C23.4521 11.204 23.4745 11.2144 23.6873 10.2679C23.7657 9.93508 23.9562 9.13418 24.1018 8.4789C24.8859 5.09849 25.1772 4.04796 25.3564 3.90234C25.6141 3.70471 27.6305 3.74632 28.0786 3.96475Z" fill="black"/>
<path d="M54.124 1.47277C53.0089 1.86821 52.9247 2.06593 52.0306 6.38454C51.8202 7.38354 51.5046 8.8196 50.8313 11.8166C50.5052 13.2943 50.4631 13.773 50.663 13.773C50.6946 13.773 52.0621 13.7834 53.7032 13.7834C56.8696 13.7938 56.9854 13.773 56.9854 13.2943C56.9854 13.159 57.08 12.6595 57.1852 12.1912C57.2904 11.7125 57.4377 11.0049 57.5113 10.5991C57.5745 10.2036 57.6902 9.83942 57.7533 9.79779C57.8269 9.75617 59.205 9.71454 60.8356 9.71454C64.265 9.71454 64.0125 9.79779 64.2755 8.56985C64.528 7.41476 64.6858 7.46679 61.3721 7.50841C59.1314 7.53963 58.5844 7.51882 58.416 7.40435C58.2267 7.25866 58.2267 7.21704 58.5002 6.09316C58.6475 5.44797 58.7737 4.8236 58.7737 4.70913C58.7737 4.59466 58.8473 4.36572 58.9315 4.20963C59.184 3.71012 59.752 3.63728 62.8659 3.72053C65.0224 3.78297 65.5905 3.77256 65.7272 3.65809C65.885 3.53322 66.2637 2.14918 66.2848 1.59765L66.2953 1.33749L60.4569 1.31668C55.2286 1.30627 54.5658 1.31668 54.124 1.47277Z" fill="black"/>
<path d="M70.0333 1.46248C69.4863 1.60868 69.1354 1.85931 68.702 2.41277C68.0621 3.2273 67.7937 3.84342 67.5873 4.96078C67.4738 5.54557 67.0609 7.45658 66.7204 8.98121C66.2869 10.8922 66.2146 11.6128 66.3694 12.2811C66.5346 12.9599 66.9681 13.5969 67.3602 13.7117C67.5047 13.7535 70.1365 13.7848 73.2018 13.7848C79.4975 13.7848 79.1466 13.8266 80.0342 12.939C80.4883 12.4691 81.1282 11.2577 81.2934 10.4954C81.3553 10.2343 81.7165 8.57395 82.0881 6.79869C82.7486 3.69722 82.7692 3.55102 82.6454 2.98712C82.5835 2.66339 82.408 2.2248 82.2635 2.01595C81.7784 1.2954 81.8404 1.30584 75.8543 1.31629C71.8395 1.32673 70.3946 1.35806 70.0333 1.46248ZM76.876 3.97917C77.0928 4.17758 77.1237 4.51175 76.9689 5.06521C76.8348 5.54557 76.4013 7.60278 76.0813 9.24228C75.782 10.8191 75.6685 11.1115 75.3486 11.2368C74.9667 11.383 72.1904 11.3621 72.0356 11.2055C71.8498 11.0175 71.8808 10.2865 72.1078 9.31538C72.2214 8.84546 72.5 7.56101 72.7374 6.47497C73.1502 4.52219 73.3257 4.07315 73.7385 3.8643C73.8417 3.80164 74.5539 3.77032 75.3073 3.78076C76.4323 3.80164 76.7212 3.83297 76.876 3.97917Z" fill="black"/>
<path d="M85.2626 1.43835C85.2105 1.51101 85.0542 2.06113 84.9292 2.66316C84.5124 4.64569 84.2102 6.0262 83.9497 7.23025C83.8038 7.88417 83.585 8.93253 83.46 9.56569C83.3454 10.1885 83.1057 11.3302 82.939 12.0983C82.6993 13.1571 82.6577 13.5204 82.7514 13.6242C82.9182 13.8318 87.2423 13.8421 87.409 13.6346C87.4716 13.5619 87.5758 13.1882 87.6383 12.8146C87.6904 12.4305 87.805 11.9427 87.8779 11.7247L88.003 11.3302L89.5555 11.2991C90.8892 11.2783 91.1289 11.2991 91.2956 11.4444C91.4102 11.5482 91.4935 11.6624 91.4935 11.7143C91.4935 11.7766 91.6394 12.1295 91.8166 12.5032C91.9937 12.8872 92.1812 13.3024 92.2333 13.427C92.3375 13.7072 92.1708 13.6865 94.8591 13.7072C96.4429 13.7176 96.9535 13.6968 97.0368 13.593C97.1202 13.4892 96.9847 13.1778 96.5054 12.3475C95.9219 11.3302 95.8698 11.2057 95.9844 10.9462C96.0469 10.7905 96.1407 10.6556 96.1824 10.6556C96.3179 10.6556 96.9743 9.70063 97.1098 9.31658C97.1723 9.11936 97.3911 8.21632 97.5891 7.29253C97.7974 6.36873 98.0579 5.22696 98.1726 4.73911C98.2872 4.25126 98.4122 3.52468 98.4435 3.11987C98.5164 2.23759 98.3289 1.8224 97.7245 1.51101C97.3598 1.32417 97.0368 1.31379 91.3581 1.31379C86.6901 1.31379 85.3459 1.34493 85.2626 1.43835ZM92.8273 3.92949C92.994 4.09556 92.9836 4.51075 92.796 5.35151C91.8582 9.63835 92.0771 9.29582 90.2744 9.24392C89.5972 9.23354 88.9928 9.21278 88.9199 9.21278C88.5969 9.19202 88.5865 8.81835 88.8991 7.27177C89.3471 5.04012 89.5242 4.30316 89.6909 4.03328C89.8264 3.81531 89.8889 3.80493 91.2643 3.80493C92.2438 3.80493 92.7439 3.84645 92.8273 3.92949Z" fill="black"/>
<path d="M102.524 1.44131C101.995 1.58731 100.973 2.25476 100.973 2.45291C100.973 2.51549 100.903 2.65106 100.809 2.7345C100.574 2.97436 100.315 3.78782 100.033 5.14358C99.892 5.8006 99.6453 6.83306 99.4925 7.43794C99.328 8.04282 99.1517 8.74155 99.093 9.00228C99.0225 9.263 98.858 9.88873 98.7169 10.4102C98.5877 10.9212 98.4584 11.6408 98.4584 11.9954C98.4467 12.788 98.6817 13.1113 99.516 13.4867L100.092 13.7474L106.238 13.7787C110.139 13.7996 112.536 13.7683 112.818 13.7057C113.699 13.4867 114.663 12.35 115.168 10.9108C115.627 9.61758 115.732 9.04399 115.544 8.84584C115.427 8.7207 114.933 8.68941 112.771 8.68941C109.704 8.68941 109.845 8.63726 109.504 9.8053C109.352 10.3267 109.164 10.6813 108.881 10.9733L108.47 11.4009H106.802C105.274 11.4009 105.098 11.3801 104.91 11.1923C104.651 10.9421 104.675 10.8691 105.532 7.38579C105.862 6.06132 106.155 4.79942 106.202 4.56999C106.343 3.75653 106.367 3.7461 108.458 3.77739C109.963 3.79825 110.35 3.82953 110.515 3.96511C110.762 4.16326 110.785 4.67427 110.597 5.45644C110.397 6.30119 110.339 6.28033 113.382 6.2699C115.133 6.2699 116.073 6.22818 116.191 6.14475C116.414 5.99875 116.837 4.33012 116.837 3.55838C116.837 2.61978 116.637 1.98361 116.238 1.63946L115.885 1.33702L109.457 1.31616C104.369 1.30573 102.924 1.32659 102.524 1.44131Z" fill="black"/>
<path d="M118.313 1.41772C118.214 1.48008 118.083 1.76068 118.018 2.07247C117.766 3.29882 117.209 5.80348 116.957 6.87394C116.804 7.49751 116.619 8.3705 116.531 8.79661C116.247 10.2204 115.93 11.6442 115.701 12.5588C115.57 13.0577 115.493 13.5357 115.537 13.6293C115.591 13.7644 115.985 13.7852 118.258 13.7852C120.269 13.7852 120.957 13.754 121.045 13.65C121.143 13.5357 121.307 12.9018 121.799 10.6673C121.897 10.2412 122.028 9.68 122.105 9.42018L122.236 8.9525L124.006 8.92132C125.547 8.90054 125.777 8.92132 125.842 9.06682C125.908 9.22271 125.864 9.44096 125.427 11.2389C125.023 12.9226 124.935 13.5773 125.11 13.6812C125.198 13.7436 126.433 13.7852 127.853 13.7852C130.575 13.7852 130.684 13.7644 130.684 13.2967C130.684 13.1616 131.001 11.6858 131.383 10.0126C131.777 8.33933 132.225 6.36469 132.378 5.6268C132.531 4.87852 132.804 3.68335 132.979 2.95585C133.165 2.23875 133.274 1.57361 133.241 1.48008C133.186 1.33458 132.859 1.31379 130.585 1.31379C128.673 1.31379 127.952 1.34497 127.821 1.4385C127.635 1.5944 127.58 1.76068 126.968 4.43163C126.673 5.69955 126.454 6.39587 126.345 6.47901C126.148 6.62451 123.329 6.67648 122.99 6.55176C122.739 6.45823 122.771 6.2088 123.176 4.46281C123.777 1.95814 123.832 1.62558 123.679 1.45929C123.58 1.34497 123.077 1.31379 121.023 1.31379C119.58 1.31379 118.422 1.36576 118.313 1.41772Z" fill="black"/>
<path d="M136.06 1.5237C134.841 2.06449 134.409 2.95887 133.816 6.08921C133.708 6.63 133.492 7.65958 133.319 8.37717C132.478 11.8403 132.413 12.6411 132.877 13.2131C133.362 13.8059 133.028 13.7851 139.858 13.7851C144.195 13.7851 146.234 13.7539 146.331 13.6811C146.407 13.6187 146.504 13.4003 146.547 13.2027C146.58 12.9947 146.731 12.4955 146.882 12.0899C147.022 11.6739 147.141 11.2891 147.141 11.2163C147.141 11.0083 146.763 10.9667 146.288 11.1331C145.393 11.4347 143.256 11.7051 141.724 11.7051C140.02 11.7051 139.243 11.5803 138.757 11.2163C138.423 10.9771 138.401 10.9355 138.401 10.2907C138.401 9.88514 138.466 9.48995 138.563 9.31315L138.736 9.00116H143.202C147.346 9.00116 147.68 8.99076 147.766 8.81396C147.82 8.72036 147.982 8.09637 148.112 7.44119C148.241 6.786 148.5 5.66282 148.673 4.94523C149.093 3.29166 149.104 2.49088 148.727 1.95009C148.543 1.6693 148.327 1.5133 148.025 1.4301C147.723 1.3365 146.062 1.3053 142.059 1.3157C136.826 1.3261 136.491 1.3365 136.06 1.5237ZM143.871 4.05085C144.109 4.31084 144.13 4.41484 144.066 4.88283C143.958 5.71482 143.796 6.23481 143.602 6.37001C143.483 6.4636 142.879 6.5052 141.465 6.5052C139.167 6.5052 139.135 6.4948 139.372 5.69402C139.448 5.42362 139.545 5.03883 139.577 4.84124C139.739 3.90525 140.268 3.68686 142.21 3.72846C143.591 3.74926 143.602 3.74926 143.871 4.05085Z" fill="black"/>
<path d="M38.2015 1.42128C37.7771 1.57882 37.1976 2.05145 37.0216 2.37705C36.9492 2.51358 36.8043 2.76565 36.7111 2.9442C36.5663 3.19628 36.2247 4.65619 35.9763 6.11609C35.9556 6.26314 35.759 7.15589 35.552 8.11165C35.345 9.06742 35.076 10.2858 34.9518 10.8319C34.6309 12.3443 34.7655 13.048 35.5003 13.5942C35.728 13.7727 36.1316 13.7832 41.7927 13.7832C46.5844 13.7937 47.8677 13.7622 47.9712 13.6572C48.0333 13.5837 48.1679 13.1846 48.2714 12.7855C48.3749 12.3758 48.4991 11.9977 48.5405 11.9452C48.5819 11.8822 48.6439 11.6616 48.6853 11.4516C48.7785 10.9474 48.5922 10.8529 47.9816 11.084C47.7436 11.1785 46.9674 11.3571 46.2532 11.4726C45.1976 11.6616 44.6594 11.6932 43.3037 11.6616C40.913 11.5986 40.3541 11.3361 40.3541 10.2648C40.3541 9.91816 40.5094 9.13044 40.5922 9.03591C40.6025 9.02541 42.5689 8.9834 44.9596 8.95189L49.296 8.89937L49.4201 8.6368C49.4926 8.48976 49.6478 7.80707 49.772 7.11387C49.8962 6.42068 50.1446 5.21284 50.3102 4.43562C50.6724 2.76565 50.6207 2.17749 50.0722 1.64184L49.7617 1.33725L44.1523 1.31625C40.0022 1.30575 38.4602 1.32675 38.2015 1.42128ZM45.4356 3.77394C45.6323 3.88947 45.7565 4.06802 45.7979 4.27808C45.8703 4.65619 45.6012 6.05308 45.4253 6.27364C45.3218 6.39967 44.9285 6.43118 43.3968 6.43118C41.7823 6.43118 41.4822 6.41018 41.3373 6.26314C41.2338 6.1476 41.1924 6.00056 41.2235 5.86402C41.2649 5.73799 41.3684 5.33888 41.4615 4.96077C41.6581 4.16255 41.7202 4.06802 42.2067 3.80545C42.7345 3.52187 44.9803 3.50086 45.4356 3.77394Z" fill="black"/>
<path d="M67.9555 17.2052C67.8379 17.3128 67.699 17.657 67.6135 18.1196C67.5281 18.5391 67.2395 19.8837 66.9724 21.1315C66.3419 23.9929 66.2351 24.5845 66.3205 24.7889C66.3633 24.918 66.5663 24.9502 67.2075 24.9395C68.5112 24.918 68.5218 24.918 68.7462 23.9821C68.8531 23.5411 68.9386 23.0785 68.9493 22.9494C68.9493 22.8311 69.0134 22.6375 69.0989 22.5192C69.3233 22.218 69.4515 22.4008 69.8683 23.6271C70.0606 24.1973 70.3064 24.7351 70.4132 24.8212C70.5415 24.918 70.9048 24.9502 71.5673 24.9287C72.3795 24.8965 72.5291 24.8642 72.5611 24.7028C72.5932 24.5307 72.2619 23.5841 71.6528 22.1212C71.5139 21.7877 71.4177 21.422 71.4498 21.3144C71.4818 21.2176 71.7169 20.9056 71.9627 20.6367C73.3412 19.1307 73.5442 18.8833 73.5122 18.7757C73.4908 18.7004 73.0847 18.6574 72.3795 18.6574H71.3002L70.9475 19.0339C70.7659 19.2491 70.4346 19.6255 70.2316 19.873C70.0286 20.1204 69.8042 20.3247 69.74 20.3247C69.537 20.3247 69.4836 19.9052 69.6332 19.4857C69.8576 18.8403 70.1461 17.4204 70.082 17.259C69.9965 17.0331 68.2226 16.9901 67.9555 17.2052Z" fill="black"/>
<path d="M84.2473 17.1203C83.5035 17.1629 83.3842 17.2802 83.2648 18.0584C83.2373 18.293 83.0628 19.1778 82.8883 20.0306C82.218 23.2821 81.9885 24.5721 82.0619 24.7746C82.1262 24.9878 83.6596 24.9985 83.88 24.7959C84.0269 24.668 84.2656 23.5913 84.5503 21.7363C84.6421 21.182 84.8533 20.0093 85.0186 19.1458C85.193 18.2716 85.3308 17.5254 85.3308 17.4721C85.3308 17.3548 85.0645 17.035 84.9818 17.067C84.9451 17.0777 84.6146 17.1096 84.2473 17.1203Z" fill="black"/>
<path d="M140.312 17.1405C139.766 17.1832 139.39 17.258 139.337 17.3434C139.294 17.4182 139.122 18.1658 138.962 18.9988C138.693 20.4191 138.35 22.0424 137.975 23.6764C137.879 24.0715 137.825 24.5094 137.846 24.6375C137.879 24.8832 137.922 24.8939 138.811 24.9259C139.337 24.9366 139.841 24.9045 139.959 24.8511C140.087 24.7764 140.184 24.5735 140.227 24.2317C140.43 22.8007 140.656 22.1599 140.902 22.3094C140.956 22.3521 141.192 22.9288 141.417 23.6123C141.878 25.022 141.813 24.9686 143.186 24.9259C144.001 24.8939 144.097 24.8725 144.129 24.6803C144.14 24.5628 143.915 23.9007 143.625 23.2065C142.853 21.4123 142.853 21.3483 143.422 20.7502C144.279 19.8531 145.062 18.9347 145.062 18.8172C145.062 18.7425 144.698 18.6997 143.968 18.6997H142.864L142.36 19.2444C142.071 19.5541 141.738 19.9279 141.599 20.0881C141.46 20.2376 141.299 20.3444 141.224 20.323C141.052 20.2696 141.084 19.9813 141.417 18.6036C141.685 17.5143 141.685 17.4395 141.513 17.2473C141.417 17.1298 141.299 17.0551 141.267 17.0658C141.234 17.0764 140.806 17.1085 140.312 17.1405Z" fill="black"/>
<path d="M50.8829 17.1942C50.7771 17.3345 50.2585 19.5464 49.9517 21.1649C49.8564 21.6721 49.6342 22.6539 49.4649 23.3661C49.2321 24.3372 49.1792 24.6824 49.2744 24.7903C49.3591 24.8982 49.6554 24.9414 50.2797 24.9414C51.031 24.9414 51.2004 24.909 51.3803 24.7256C51.4967 24.6069 51.5919 24.4343 51.5919 24.3372C51.5919 23.9379 52.4702 20.1183 52.6184 19.8917C52.7454 19.6759 52.8406 19.6435 53.3062 19.6759C53.666 19.6975 53.8776 19.7622 53.9517 19.8809C54.0681 20.0644 53.7612 21.726 53.2639 23.7221C52.9676 24.909 52.9993 24.9414 54.2903 24.9414C54.9464 24.9414 55.3062 24.8982 55.3803 24.8011C55.4332 24.7364 55.539 24.3587 55.592 23.9703C55.6554 23.5819 55.8353 22.6863 55.9835 21.9742C56.1422 21.262 56.3115 20.4852 56.3645 20.2478C56.502 19.568 56.4703 18.8667 56.2904 18.5969C56.1422 18.3703 56.0576 18.3595 54.5549 18.3595C53.6343 18.3595 52.957 18.3164 52.9147 18.2516C52.8829 18.1977 52.8935 17.9819 52.9464 17.7877C53.1157 17.1619 52.9887 17.0648 51.9199 17.0648C51.2956 17.0648 50.9464 17.1079 50.8829 17.1942Z" fill="black"/>
<path d="M109.91 17.1942C109.846 17.2698 109.676 17.9603 109.507 18.7372C109.348 19.5033 109.03 21.0139 108.797 22.0821C108.246 24.5422 108.225 24.7256 108.405 24.8443C108.49 24.8982 108.935 24.9414 109.411 24.9414C110.111 24.9414 110.302 24.909 110.439 24.7472C110.545 24.6393 110.62 24.4774 110.62 24.4019C110.62 24.1753 111.457 20.4636 111.584 20.1183C111.732 19.7191 111.849 19.6543 112.442 19.6543C113.152 19.6543 113.226 19.8378 112.961 20.9168C112.792 21.6073 112.442 23.1611 112.156 24.4666C112.071 24.8659 112.336 24.963 113.364 24.9306C113.894 24.909 114.371 24.8335 114.434 24.7688C114.498 24.704 114.615 24.2509 114.689 23.7437C114.774 23.2474 114.996 22.2008 115.176 21.4347C115.579 19.7191 115.632 18.9098 115.335 18.5753C115.144 18.3595 115.049 18.3488 113.565 18.3703C112.697 18.3811 111.965 18.3595 111.934 18.3272C111.902 18.2948 111.923 18.0898 111.997 17.8848C112.061 17.669 112.093 17.3992 112.05 17.2806C111.987 17.0863 111.891 17.0648 111.001 17.0648C110.333 17.0648 109.973 17.1079 109.91 17.1942Z" fill="black"/>
<path d="M87.8074 17.1526C87.6447 17.2185 87.547 17.383 87.4928 17.6682C87.3951 18.2387 87.2757 18.3594 86.7983 18.3594C86.3534 18.3594 86.234 18.4581 86.0495 19.0066C85.9519 19.3247 85.9627 19.4125 86.1147 19.588C86.2123 19.6977 86.3751 19.7635 86.4727 19.7306C86.744 19.6429 87.0153 19.7745 87.0153 19.9939C87.0153 20.1036 86.82 21.069 86.5921 22.155C86.3534 23.263 86.1906 24.2503 86.2232 24.4258C86.31 24.8646 86.603 24.9414 88.2632 24.9414C89.88 24.9414 89.9777 24.9085 90.097 24.2284C90.1947 23.6908 90.1079 23.5921 89.5979 23.6579C89.2724 23.7018 89.1204 23.6689 88.9685 23.5153C88.7623 23.3069 88.784 23.0655 89.1096 21.5407C89.4894 19.7964 89.6087 19.599 90.1621 19.7196C90.683 19.8184 90.9977 19.6319 91.1496 19.1382C91.3449 18.491 91.2473 18.3813 90.5202 18.3374L89.8909 18.3045L89.9234 17.7341C89.956 17.2623 89.9234 17.1636 89.7607 17.1197C89.4134 17.032 88.057 17.0539 87.8074 17.1526Z" fill="black"/>
<path d="M59.1001 19.1851C58.9224 19.3204 58.8597 19.4655 58.8597 19.7459C58.8597 20.181 58.6925 20.152 60.6365 20.123C62.4028 20.1037 62.6222 20.152 62.6222 20.5195C62.6222 20.9739 62.2355 21.09 60.7096 21.0803C59.2673 21.0609 58.8597 21.1673 58.3894 21.6895C58.0236 22.0956 57.7728 22.9465 57.7623 23.8264C57.7623 24.9964 57.6369 24.9481 61.0127 24.9384C63.96 24.9384 64.0854 24.9191 64.0854 24.4549C64.0854 24.3486 64.1482 24.0392 64.2318 23.7684C64.3049 23.488 64.5244 22.521 64.723 21.6024C65.2456 19.0787 65.2874 19.127 61.7966 19.0594C59.5391 19.011 59.3196 19.0207 59.1001 19.1851ZM61.8279 22.0182C62.0265 22.0859 62.037 22.4243 61.8802 23.1206C61.7966 23.4977 61.713 23.6137 61.5457 23.6427C60.7932 23.7877 60.5633 23.7877 60.3647 23.6524C60.1662 23.5267 60.1452 23.4687 60.2289 23.0529C60.4065 22.1826 60.4901 22.0666 61.0441 22.0279C61.3054 22.0086 61.5562 21.9892 61.598 21.9795C61.6294 21.9699 61.7339 21.9892 61.8279 22.0182Z" fill="black"/>
<path d="M75.6714 19.0689C74.6795 19.1652 74.6072 19.2904 73.8737 22.382C73.4708 24.0963 73.4501 24.2215 73.6051 24.5104C73.7187 24.732 73.853 24.8379 74.0907 24.8861C74.6072 24.9727 79.0084 24.9535 79.2771 24.8572C79.556 24.7608 79.8453 24.1059 79.7316 23.8266C79.68 23.7014 79.587 23.6822 79.2771 23.7303C77.686 24 76.6529 24 76.1879 23.7303C75.8677 23.5473 75.847 22.8828 76.1466 22.7287C76.2706 22.6709 77.1074 22.6324 78.1613 22.6324C80.3309 22.6324 80.1449 22.7576 80.5375 20.9855C80.8164 19.7527 80.8061 19.4445 80.4755 19.1941C80.3205 19.0689 76.6425 18.9822 75.6714 19.0689ZM78.4815 20.3595C78.6675 20.6195 78.6055 21.0336 78.3472 21.3033C78.2232 21.4381 78.0269 21.4767 77.3967 21.4767C76.4462 21.4767 76.3223 21.39 76.4772 20.8699C76.6322 20.3498 76.9938 20.1283 77.717 20.1283C78.2439 20.1283 78.3472 20.1572 78.4815 20.3595Z" fill="black"/>
<path d="M126.762 19.0832C126.379 19.1023 126.015 19.1692 125.966 19.2361C125.907 19.303 125.681 20.144 125.465 21.1187C125.239 22.0935 124.964 23.2881 124.856 23.7755C124.59 24.9127 124.61 24.9414 125.691 24.9414C126.703 24.9414 126.841 24.8554 126.988 24.11C127.047 23.8042 127.195 23.1256 127.313 22.6C127.696 20.8129 127.932 19.733 127.981 19.475C128.02 19.2552 127.991 19.1979 127.765 19.1118C127.627 19.0641 127.5 19.0258 127.49 19.0354C127.48 19.0449 127.156 19.0736 126.762 19.0832Z" fill="black"/>
<path d="M34.1255 19.276C33.956 19.4116 33.7864 19.644 33.7412 19.7893C33.7073 19.9345 33.6282 20.1767 33.583 20.3413C33.3795 20.9223 33.1422 22.2297 33.1987 22.3653C33.3117 22.6074 33.5943 22.6364 35.4818 22.6268C37.392 22.6074 37.652 22.6558 37.652 23.0044C37.652 23.3821 37.3807 23.4306 35.3575 23.4209C34.2838 23.4209 33.3343 23.4499 33.2326 23.4983C33.1422 23.5371 32.9952 23.8179 32.9161 24.1181C32.6901 24.9703 32.5883 24.9413 35.8548 24.9413C37.7537 24.9413 38.7483 24.9026 38.9518 24.8251C39.3135 24.6798 39.6187 24.2634 39.8334 23.5855C40.1273 22.6655 40.1725 22.1425 39.9803 21.8908C39.7769 21.6196 39.4717 21.5809 37.5503 21.5131C36.6686 21.4743 36.2278 21.4259 36.16 21.3388C36.047 21.1838 36.1487 20.6996 36.3748 20.4091C36.5217 20.2057 36.6008 20.1863 37.2903 20.2154L38.0476 20.2444L38.1041 20.5834L38.1606 20.9223L39.1778 20.9708C40.4551 21.0289 40.5794 20.9611 40.6698 20.1185C40.7263 19.5762 40.7037 19.4891 40.4777 19.276L40.2177 19.0339H37.3242H34.4307L34.1255 19.276Z" fill="black"/>
<path d="M42.3838 19.2015C41.866 19.4636 41.6252 19.9977 41.0833 22.1727C40.3608 25.0176 40.2645 24.9399 44.2984 24.9399C45.8637 24.9496 46.9836 24.9108 47.2244 24.8428C47.8265 24.6778 48.6814 23.4835 48.6814 22.8135C48.6814 22.5222 48.3684 22.464 47.0197 22.5028L45.7795 22.5319L45.5025 23.0368C45.1653 23.6582 44.9486 23.8039 44.4429 23.7651C43.901 23.7262 43.8889 23.5126 44.2984 21.8134C44.6476 20.3375 44.8161 20.0948 45.4182 20.0948C45.8878 20.0948 46.0805 20.3181 46.0444 20.823C46.0203 21.3279 46.0082 21.3279 47.6218 21.3473C48.7657 21.3668 48.8019 21.357 48.9945 21.1046C49.3076 20.7259 49.3076 19.5122 48.9945 19.2306C48.7657 19.0364 48.6694 19.0267 45.7433 19.0364C43.1544 19.0461 42.6728 19.0655 42.3838 19.2015Z" fill="black"/>
<path d="M93.819 19.4314C93.5908 19.6932 93.4146 20.0034 93.342 20.3331C93.2798 20.6046 93.1346 21.2154 93.0205 21.7001C92.5332 23.7458 92.4709 24.2112 92.6265 24.5118C92.7094 24.6669 92.8857 24.822 93.0309 24.8608C93.1761 24.8996 94.41 24.9287 95.7892 24.9384C98.5786 24.9481 98.4749 24.9772 98.7341 24.2306C98.8378 23.9301 98.8378 23.8331 98.7237 23.7265C98.5993 23.6198 98.506 23.6198 98.1119 23.7458C97.8008 23.8525 97.2824 23.901 96.5772 23.901C95.2707 23.8913 95.0011 23.7749 95.0011 23.2223C95.0011 23.0187 95.0529 22.8054 95.1255 22.7375C95.2085 22.66 95.8099 22.6212 97.1268 22.6212C98.1534 22.6212 99.0452 22.5824 99.1178 22.5436C99.2422 22.4661 99.771 20.1586 99.771 19.7126C99.7607 19.5769 99.6777 19.3733 99.574 19.2472C99.377 19.0339 99.3459 19.0339 96.7846 19.0339H94.1923L93.819 19.4314ZM97.5001 20.304C97.6349 20.5367 97.5623 21.1087 97.3757 21.322C97.2927 21.419 97.0128 21.4577 96.3802 21.4577C95.3744 21.4577 95.2914 21.3802 95.5299 20.7403C95.7062 20.2555 96.0069 20.1004 96.7846 20.1004C97.2824 20.1004 97.3964 20.1295 97.5001 20.304Z" fill="black"/>
<path d="M101.53 19.2187C100.909 19.5591 100.741 19.919 100.203 22.1171C99.7374 24.0137 99.7015 24.2472 99.8449 24.4903C99.9405 24.6265 100.108 24.7821 100.227 24.8307C100.574 24.9572 106.084 24.9864 106.395 24.8599C106.885 24.6557 107.267 24.1499 107.614 23.2551C107.865 22.584 107.757 22.5354 106.18 22.5354H104.829L104.614 22.9925C104.375 23.5469 104.064 23.7998 103.61 23.7998C102.988 23.7998 102.965 23.6636 103.359 21.9907C103.741 20.3664 103.897 20.1038 104.447 20.1038C104.901 20.1038 105.164 20.3859 105.164 20.8527C105.164 21.1251 105.224 21.2709 105.355 21.3098C105.666 21.4071 107.674 21.3779 107.913 21.2709C108.319 21.0959 108.451 19.705 108.104 19.2771L107.913 19.0339H104.889C102.128 19.0339 101.853 19.0534 101.53 19.2187Z" fill="black"/>
<path d="M118.261 19.1597C118.198 19.2178 118.124 19.3823 118.092 19.5177C117.881 20.437 117.14 23.369 116.971 23.9592C116.823 24.4915 116.802 24.714 116.886 24.8108C117.034 24.985 118.906 24.985 119.055 24.8108C119.118 24.7527 119.298 24.085 119.456 23.34C120.186 19.9919 120.102 20.1757 120.979 20.2145C121.508 20.2435 121.572 20.2628 121.603 20.4757C121.625 20.5918 121.572 20.9886 121.477 21.3466C121.053 23.0013 120.778 24.2786 120.778 24.5398C120.778 24.8882 120.905 24.9366 121.931 24.9366C122.587 24.9366 122.788 24.8979 122.915 24.7624C123.158 24.5205 124.057 20.6402 124.057 19.8274C124.057 19.0242 124.089 19.0339 121.022 19.0339C119.023 19.0339 118.346 19.063 118.261 19.1597Z" fill="black"/>
<path d="M130.882 19.1602C130.324 19.4516 130.18 19.7915 129.756 21.802C129.601 22.5498 129.426 23.356 129.374 23.5988C129.219 24.2398 129.343 24.7157 129.694 24.8517C129.88 24.9294 130.809 24.9488 132.544 24.9391C134.701 24.91 135.125 24.8905 135.187 24.7643C135.62 23.9387 135.6 23.7348 135.083 23.7736C134.887 23.793 134.165 23.8319 133.483 23.8513C132.327 23.8999 132.213 23.8902 131.955 23.6959C131.656 23.4725 131.594 23.1423 131.78 22.8121C131.883 22.6372 132.017 22.6275 133.772 22.6275C135.135 22.6275 135.703 22.5887 135.816 22.5013C135.971 22.3847 136.529 20.1994 136.529 19.7041C136.529 19.5681 136.426 19.3641 136.291 19.2476C136.054 19.0436 135.982 19.0339 133.576 19.0339C131.842 19.0436 131.047 19.0728 130.882 19.1602ZM134.134 20.2188C134.206 20.2868 134.258 20.5199 134.258 20.7336C134.258 21.3552 134.051 21.4815 133.06 21.4426L132.244 21.4135L132.265 20.9861C132.296 20.3354 132.585 20.1023 133.38 20.1023C133.731 20.1023 134.061 20.1509 134.134 20.2188Z" fill="black"/>
</svg>
